<?xml version="1.0" encoding="utf-8"?>
<svg version="1.1" xmlns:xlink="http://www.w3.org/1999/xlink" width="377px" height="129px" xmlns="http://www.w3.org/2000/svg">
  <g>
    <path d="M 0 0  L 377 0  L 377 129  L 0 129  L 0 0  " fill-rule="nonzero" fill="#cccccc" stroke="none" />
    <path d="M 9 9  L 368 9  L 368 120  L 9 120  L 9 9  " fill-rule="nonzero" fill="#ffffff" stroke="none" />
    <path d="M 205.715 38.7  C 200.297 38.7  196.04 34.443  196.04 29.025  C 196.04 23.607  200.297 19.35  205.715 19.35  C 211.133 19.35  215.39 23.607  215.39 29.025  C 215.39 34.443  211.133 38.7  205.715 38.7  " fill-rule="nonzero" fill="#cccccc" stroke="none" />
    <path d="M 12 117  L 12 59.25  L 100.25 33  L 223.8 95.4429708222812  L 294.4 48.75  L 365 95.4429708222812  L 365 117  L 12 117  " fill-rule="nonzero" fill="#169bd5" stroke="none" />
  </g>
</svg>